<svg width="143" height="50" viewBox="0 0 143 50" fill="none" xmlns="http://www.w3.org/2000/svg">
<path d="M43.1541 45H33.9772L27.2291 30.337C25.1623 31.4614 23.5933 33.4115 21.9548 35.4478C20.6729 37.0411 19.3484 38.6872 17.7099 40.0318C15.8028 41.596 13.586 42.981 10.815 43.9261C9.55995 44.3497 7.42466 44.9037 6.62597 44.9852C6.28367 45.0178 6.05547 45.0015 6.00657 44.8874C5.97397 44.7896 6.05547 44.7245 6.41407 44.5452C6.48659 44.5104 6.59937 44.4597 6.74175 44.3955C7.39959 44.0993 8.68915 43.5185 9.55995 42.9158C10.8802 41.9871 11.63 40.9932 11.6952 40.2274C11.6287 39.9915 11.4853 39.7018 11.3126 39.3532C10.555 37.8229 9.23494 35.1568 11.3855 30.9236C11.7655 30.1704 12.1244 29.5042 12.4559 28.8888C12.9492 27.9731 13.3818 27.1701 13.7327 26.3613C14.401 24.8134 14.89 22.63 15.053 21.0006C15.0693 20.9028 15.0856 20.9028 15.1345 20.968C16.4222 22.2715 21.41 27.3878 20.6765 32.4878C22.3391 31.8523 25.2079 29.9133 26.5282 28.8868C26.8384 28.6452 27.1247 28.402 27.3985 28.1694C28.3619 27.351 29.171 26.6636 30.326 26.6383C31.068 26.6291 31.4291 26.8258 31.791 27.023C32.0732 27.1767 32.3559 27.3307 32.8199 27.3878C33.0807 27.4204 33.4719 27.3715 33.6675 27.2737C33.749 27.2411 33.7327 27.1434 33.6023 27.1108C33.0055 26.9684 32.5949 26.6822 32.185 26.3964C31.6099 25.9954 31.0362 25.5955 29.9512 25.5955C28.7003 25.5955 27.6339 26.4624 26.7729 27.1625C26.4896 27.3929 26.2284 27.6052 25.9903 27.7625L21.2796 17.9536C19.3236 13.8476 19.9104 10.8658 24.2462 5L43.1541 45Z" fill="#1E1852"/>
<path d="M58.1328 45.0164H52.4442C50.0481 45.0164 48.8256 44.4866 47.9454 43.3111C47 42.0693 47 40.1654 47 38.3773V5.01636H54.335V39.4534C54.335 42.1852 54.6283 44.1223 58.1328 44.9005V45.0164Z" fill="#1E1852"/>
<path d="M66.4442 45.0164H72.1328V44.9005C68.6284 44.1223 68.335 42.1852 68.335 39.4534V5.01636H61V38.3773C61 40.1654 61 42.0693 61.9454 43.3111C62.8256 44.4866 64.0481 45.0164 66.4442 45.0164Z" fill="#1E1852"/>
<path fill-rule="evenodd" clip-rule="evenodd" d="M80.9376 14.6134H78.2318L77.8569 15.4769H76.4062L79.3076 8.87793H79.8618L82.7632 15.4769H81.3125L80.9376 14.6134ZM79.6011 11.2894L78.7371 13.5054H80.4812L79.6011 11.2894Z" fill="#1E1852"/>
<path d="M91.3037 10.3932C91.0103 9.87184 90.6028 9.48078 90.0975 9.18749C89.5922 8.8942 89.0217 8.74756 88.386 8.74756C87.408 8.74756 86.5767 9.07344 85.8921 9.72519C85.2075 10.3769 84.8652 11.1916 84.8652 12.153C84.8652 13.1306 85.1912 13.9453 85.8758 14.5971C86.5441 15.2488 87.3754 15.5747 88.3697 15.5747C89.0054 15.5747 89.5759 15.428 90.0975 15.1348C90.6191 14.8415 91.0103 14.4504 91.3037 13.929L90.2768 13.2121C89.8041 13.9453 89.1847 14.3201 88.386 14.3201C87.7666 14.3201 87.2613 14.1245 86.8538 13.7172C86.4463 13.3261 86.2507 12.8047 86.2507 12.1693C86.2507 11.5338 86.4463 11.0124 86.8538 10.6051C87.2613 10.1977 87.7666 10.0022 88.386 10.0022C89.1847 10.0022 89.8041 10.3769 90.2768 11.1102L91.3037 10.3932Z" fill="#1E1852"/>
<path d="M99.1112 9.18749C99.6165 9.48078 100.024 9.87184 100.317 10.3932L99.2905 11.1102C98.8178 10.3769 98.1984 10.0022 97.3997 10.0022C96.7803 10.0022 96.275 10.1977 95.8675 10.6051C95.46 11.0124 95.2644 11.5338 95.2644 12.1693C95.2644 12.8047 95.46 13.3261 95.8675 13.7172C96.275 14.1245 96.7803 14.3201 97.3997 14.3201C98.1984 14.3201 98.8178 13.9453 99.2905 13.2121L100.317 13.929C100.024 14.4504 99.6328 14.8415 99.1112 15.1348C98.5896 15.428 98.0191 15.5747 97.3834 15.5747C96.3891 15.5747 95.5578 15.2488 94.8895 14.5971C94.2049 13.9453 93.8789 13.1306 93.8789 12.153C93.8789 11.1916 94.2212 10.3769 94.9058 9.72519C95.5904 9.07344 96.4217 8.74756 97.3997 8.74756C98.0354 8.74756 98.6059 8.8942 99.1112 9.18749Z" fill="#1E1852"/>
<path fill-rule="evenodd" clip-rule="evenodd" d="M109.935 12.1693C109.935 11.208 109.593 10.3933 108.909 9.74155C108.208 9.0735 107.376 8.76392 106.415 8.76392C105.453 8.76392 104.622 9.08979 103.937 9.74155C103.252 10.3933 102.91 11.208 102.91 12.1693C102.91 13.147 103.252 13.9617 103.937 14.6134C104.605 15.2652 105.437 15.5911 106.415 15.5911C107.393 15.5911 108.224 15.2652 108.909 14.6134C109.593 13.9454 109.935 13.1307 109.935 12.1693ZM104.296 12.1693C104.296 11.5339 104.491 11.0125 104.899 10.6051C105.306 10.1978 105.812 10.0023 106.431 10.0023C107.034 10.0023 107.539 10.1978 107.947 10.6051C108.354 11.0125 108.55 11.5339 108.55 12.1693C108.55 12.8048 108.354 13.3262 107.947 13.7335C107.539 14.1409 107.034 14.3364 106.431 14.3364C105.812 14.3364 105.29 14.1409 104.899 13.7335C104.491 13.3262 104.296 12.8048 104.296 12.1693Z" fill="#1E1852"/>
<path fill-rule="evenodd" clip-rule="evenodd" d="M117.156 15.4769L115.445 13.1469H114.451V15.4769H113.098V8.87793H115.575C116.276 8.87793 116.847 9.07346 117.287 9.46451C117.727 9.85556 117.955 10.377 117.955 11.0124C117.955 11.4361 117.857 11.8108 117.645 12.1204C117.433 12.4463 117.156 12.6907 116.798 12.8699L118.672 15.4769H117.156ZM115.575 11.9575C115.885 11.9575 116.129 11.876 116.309 11.6968C116.488 11.5175 116.57 11.2894 116.57 11.0124C116.57 10.7354 116.472 10.5073 116.292 10.3281C116.113 10.1489 115.869 10.0674 115.559 10.0674H114.434V11.9575H115.575Z" fill="#1E1852"/>
<path d="M80.6599 28.6912H77.7748V23.3142H76.4219V29.9132H80.6599V28.6912Z" fill="#1E1852"/>
<path d="M84.8177 29.9132H83.4648V23.3142H84.8177V29.9132Z" fill="#1E1852"/>
<path d="M91.0259 29.8971L93.911 23.2981H92.3951L90.7488 27.3064L89.1025 23.2981H87.5703L90.4717 29.8971H91.0259Z" fill="#1E1852"/>
<path d="M101.116 24.52H98.0189V25.8561H100.285V27.0129H98.0189V28.6912H101.23V29.9132H96.666V23.3142H101.116V24.52Z" fill="#1E1852"/>
<path d="M80.6599 43.5398H77.7748V38.1628H76.4219V44.7619H80.6599V43.5398Z" fill="#1E1852"/>
<path d="M84.8177 44.7619H83.4648V38.1628H84.8177V44.7619Z" fill="#1E1852"/>
<path d="M94.7426 44.7618V38.1465H94.2047L91.4989 41.6171L88.7931 38.1465H88.2715V44.7618H89.6244V41.226L91.287 43.3116H91.7271L93.3897 41.226V44.7618H94.7426Z" fill="#1E1852"/>
<path d="M99.5677 44.7619H98.2148V38.1628H99.5677V44.7619Z" fill="#1E1852"/>
<path d="M105.779 39.3686H107.898V38.1628H102.307V39.3686H104.426V44.7456H105.779V39.3686Z" fill="#1E1852"/>
<path d="M112.021 43.5398H114.906V44.7619H110.668V38.1628H112.021V43.5398Z" fill="#1E1852"/>
<path d="M119.064 39.3686H122.161V38.1628H117.711V44.7619H122.275V43.5398H119.064V41.8615H121.33V40.7047H119.064V39.3686Z" fill="#1E1852"/>
<path d="M128.63 38.3748C129.005 38.6029 129.282 38.9125 129.494 39.2872L128.581 40.0041C128.239 39.499 127.815 39.2383 127.326 39.2383C127.098 39.2383 126.902 39.2872 126.739 39.4013C126.576 39.5153 126.511 39.662 126.511 39.8738C126.511 40.053 126.576 40.1834 126.69 40.2811C126.804 40.3789 127 40.493 127.293 40.6233L128.043 40.9492C128.597 41.1936 129.005 41.4706 129.282 41.7639C129.543 42.0572 129.689 42.4319 129.689 42.8719C129.689 43.4747 129.478 43.9473 129.037 44.3057C128.597 44.6642 128.043 44.8434 127.375 44.8434C126.821 44.8434 126.315 44.7131 125.875 44.4524C125.435 44.1917 125.077 43.8332 124.832 43.3933L125.761 42.6926C126.218 43.3281 126.755 43.654 127.375 43.654C127.668 43.654 127.896 43.5888 128.059 43.4585C128.222 43.3281 128.304 43.1489 128.304 42.9207C128.304 42.7904 128.271 42.6763 128.19 42.5623C128.108 42.4645 128.027 42.3831 127.929 42.3342C127.908 42.3234 127.884 42.3111 127.857 42.2974C127.763 42.2488 127.634 42.1822 127.456 42.1061L126.739 41.7802C126.218 41.5521 125.826 41.2751 125.549 40.9818C125.272 40.6885 125.142 40.3137 125.142 39.8738C125.142 39.3198 125.354 38.8636 125.761 38.5214C126.169 38.1792 126.707 38 127.326 38C127.831 38.0326 128.271 38.1466 128.63 38.3748Z" fill="#1E1852"/>
<path d="M136.879 39.2872C136.667 38.9125 136.39 38.6029 136.015 38.3748C135.64 38.1466 135.2 38.0326 134.711 38C134.091 38 133.553 38.1792 133.146 38.5214C132.738 38.8636 132.526 39.3198 132.526 39.8738C132.526 40.3137 132.657 40.6885 132.934 40.9818C133.211 41.2751 133.602 41.5521 134.124 41.7802L134.841 42.1061C135.019 42.1822 135.147 42.2484 135.241 42.2971C135.268 42.3109 135.292 42.3234 135.314 42.3342C135.412 42.3831 135.493 42.4645 135.575 42.5623C135.656 42.6763 135.689 42.7904 135.689 42.9207C135.689 43.1489 135.607 43.3281 135.444 43.4585C135.281 43.5888 135.053 43.654 134.76 43.654C134.14 43.654 133.602 43.3281 133.146 42.6926L132.217 43.3933C132.461 43.8332 132.82 44.1917 133.26 44.4524C133.7 44.7131 134.205 44.8434 134.76 44.8434C135.428 44.8434 135.982 44.6642 136.422 44.3057C136.862 43.9473 137.074 43.4747 137.074 42.8719C137.074 42.4319 136.928 42.0572 136.667 41.7639C136.39 41.4706 135.982 41.1936 135.428 40.9492L134.678 40.6233C134.385 40.493 134.189 40.3789 134.075 40.2811C133.961 40.1834 133.896 40.053 133.896 39.8738C133.896 39.662 133.961 39.5153 134.124 39.4013C134.287 39.2872 134.482 39.2383 134.711 39.2383C135.2 39.2383 135.624 39.499 135.966 40.0041L136.879 39.2872Z" fill="#1E1852"/>
</svg>
