<?xml version="1.0" encoding="utf-8"?>
<!-- Generator: Adobe Illustrator 15.1.0, SVG Export Plug-In . SVG Version: 6.00 Build 0)  -->
<svg version="1.1" id="Layer_1" xmlns="http://www.w3.org/2000/svg" xmlns:xlink="http://www.w3.org/1999/xlink" x="0px" y="0px"
     width="700.869px" height="73.777px" viewBox="0 0 700.869 73.777" enable-background="new 0 0 700.869 73.777"
     xml:space="preserve">
<g>
<path fill="#00A4F2" d="M35.088,60.539c-3.129,0-4.746-2.535-3.613-5.672l13.082-35.934c1.145-3.133,4.613-5.672,7.746-5.672
		h56.645C109.33,5.59,104.182,0,95.717,0H40.1C29.65,0,18.104,8.484,14.303,18.934L1.217,54.867
		c-3.797,10.445,1.59,18.91,12.035,18.91h55.613c8.477,0,17.664-5.566,22.871-13.238H35.088z" />
<path fill="#00A4F2" d="M114.443,73.777c-10.453,0-15.836-8.465-12.031-18.91l13.09-35.934C119.291,8.484,130.846,0,141.283,0
		H205.6c10.441,0,15.84,8.484,12.027,18.934l-13.074,35.934c-3.801,10.445-15.359,18.91-25.805,18.91H114.443z M166.545,60.539
		c3.133,0,6.602-2.535,7.742-5.672l13.078-35.934c1.145-3.133-0.477-5.672-3.609-5.672h-30.254c-3.145,0-6.609,2.539-7.754,5.672
		l-15.066,41.602L166.545,60.539z" />
<path fill="#00A4F2" d="M478.373,49.195c-3.137,0-6.598,2.539-7.746,5.672l-6.883,18.91h-30.258l19.965-54.844
		C457.244,8.484,468.803,0,479.248,0h64.313c10.441,0,15.824,8.484,12.027,18.934l-19.969,54.844h-30.254l8.945-24.582H478.373z
		 M513.451,35.957c3.133,0,6.605-2.543,7.738-5.676l4.133-11.348c1.137-3.133-0.473-5.672-3.613-5.672h-30.254
		c-3.137,0-6.602,2.539-7.742,5.672l-6.199,17.023H513.451z" />
<path fill="#00A4F2" d="M330.17,20.27l0.5-1.336C334.467,8.484,329.076,0,318.635,0h-64.316c-10.445,0-21.988,8.484-25.793,18.934
		l-19.969,54.844h83.223c10.449,0,21.996-8.465,25.805-18.91l0.469-1.289c2.621-7.199,0.883-13.461-3.879-16.66
		C321.256,33.727,327.557,27.465,330.17,20.27z M254.658,30.281l4.125-11.348c1.145-3.133,4.609-5.672,7.746-5.672h30.258
		c3.137,0,4.754,2.539,3.609,5.672l-2.063,5.672c-1.141,3.133-4.609,5.676-7.742,5.676H254.658z M243.639,60.539l4.133-11.344
		c1.137-3.133,4.605-5.676,7.738-5.676h30.27c3.129,0,4.746,2.543,3.605,5.676l-2.07,5.672c-1.133,3.137-4.594,5.672-7.73,5.672
		H243.639z" />
<path fill="#00A4F2" d="M399.326,35.957c3.133,0,6.598-2.543,7.734-5.676l4.133-11.348C414.998,8.484,426.549,0,436.986,0h11.355
		L421.49,73.777h-30.27l8.961-24.582h-35.938c-3.137,0-6.598,2.539-7.742,5.672l-6.887,18.91h-30.262l19.965-54.844
		C343.119,8.484,354.674,0,365.123,0h11.344l-13.082,35.957H399.326z" />
<path fill="#00A4F2" d="M652.811,0c-5.156,0-10.578,2.066-15.207,5.414C635.412,2.066,631.49,0,626.334,0h-33.172
		c-10.449,0-22.004,8.484-25.805,18.934L547.4,73.777h30.266l19.957-54.844c1.137-3.133,4.602-5.672,7.742-5.672h9.461
		c3.125,0,4.742,2.539,3.602,5.672l-20.074,54.844h30.266l20.066-54.844c1.148-3.133,4.609-5.672,7.746-5.672h9.461
		c3.129,0,4.742,2.539,3.605,5.672l-20.07,54.844h30.258l19.965-54.844C703.447,8.484,698.076,0,687.627,0H652.811z" />
</g>
</svg>

