<svg version="1.1" id="Layer_1" xmlns="http://www.w3.org/2000/svg"
     viewBox="0 0 98.9 24.4" style="enable-background:new 0 0 98.9 24.4;" xml:space="preserve">
    <path fill="#6F2C91" d="M13.8,0.4v23.7c0,0.3-0.1,0.4-0.3,0.4h-1.8c-0.8,0-0.9-0.2-0.9-1V19c0-1.1-0.2-1.3-1.1-1.3H4.2
        c-0.9,0-1.1,0.2-1.1,1.3v4.4c0,0.8-0.2,1-1,1H0.3C0.1,24.4,0,24.3,0,24V8.8c0-0.3,0.2-0.4,0.3-0.4h1.8c0.8,0,1,0.2,1,1.1v4.2
        c0,1.2,0.2,1.3,1.1,1.3h5.5c0.9,0,1.1-0.2,1.1-1.2V1c0-0.8,0.2-1,0.9-1h1.8C13.8,0,13.8,0.2,13.8,0.4z M26.9,18.1
        c-0.4-0.8-0.6-1.3-0.6-1.7c0-0.4,0.2-0.8,0.5-1.4l3.1-6c0.2-0.4-0.1-0.5-0.3-0.5h-1.1c-1.4,0-1.9,0.5-2.5,1.7l-1.9,3.6
        c-0.5,1.1-1,1.4-2.3,1.4H20c-0.7,0-0.8-0.1-0.8-0.9V3.8C19.2,3.3,19,3,18.5,3h-2c-0.2,0-0.3,0.1-0.3,0.4V24c0,0.3,0,0.4,0.3,0.4h2
        c0.6,0,0.9-0.2,0.9-0.8v-5c0-0.8,0.1-0.9,0.7-0.9h1.9c1.2,0,1.7,0.3,2.2,1.4l1.8,3.6c0.7,1.3,1.2,1.7,2.6,1.7h1.1
        c0.2,0,0.5-0.2,0.3-0.5L26.9,18.1z"/>
    <path fill="#ED1D24" d="M38.8,9.2c-0.6-0.5-1.5-0.8-3-0.8c-1.6,0-2.7,0.3-3.3,0.9c-0.8,0.6-1.4,1.8-1.4,4c0,2,0.5,3.1,1.2,3.7
        c0.6,0.6,1.8,0.9,3.5,0.9c1.5,0,2.6-0.2,3-0.4c0.4-0.3,0.8-1,0.8-1.5c0-0.2-0.1-0.3-0.3-0.2c-0.6,0.1-1.7,0.3-2.9,0.3
        c-1.2,0-2-0.2-2.4-0.5c-0.4-0.3-0.5-0.7-0.5-1.3c0-0.2,0.1-0.3,0.6-0.3h5.5c0.3,0,0.3-0.2,0.3-0.5C39.8,10.7,39.4,9.7,38.8,9.2z
         M37.4,12.1c-0.1,0.1-0.4,0.1-0.8,0.1H34c-0.4,0-0.5-0.1-0.5-0.3c0-0.3,0.1-1,0.6-1.3c0.3-0.3,0.8-0.5,1.6-0.5
        c0.8,0,1.2,0.1,1.5,0.3c0.3,0.2,0.5,0.8,0.5,1.4C37.6,12,37.5,12.1,37.4,12.1z M49.5,12c-0.3,0.5-0.3,0.8-0.3,1.1
        c0,0.3,0.2,0.7,0.4,1.3l1.4,3c0.1,0.2,0,0.3-0.2,0.3h-0.9c-1,0-1.3-0.3-1.6-1l-0.9-2.1c-0.2-0.6-0.4-0.7-1-0.7h-0.5
        c-0.5,0-0.8,0.1-1,0.6l-1,2.3c-0.3,0.7-0.6,0.9-1.5,0.9h-0.9c-0.2,0-0.3-0.1-0.2-0.3l1.6-3.3c0.2-0.5,0.3-0.8,0.3-1.1
        c0-0.3-0.1-0.7-0.3-1.2l-1.3-2.9c-0.1-0.2,0-0.3,0.2-0.3h0.9c1,0,1.2,0.2,1.5,0.9l0.8,1.8c0.3,0.6,0.4,0.8,1,0.8h0.5
        c0.6,0,0.8-0.1,1.1-0.7l0.9-1.9c0.3-0.7,0.6-1,1.5-1h0.8c0.2,0,0.3,0.1,0.2,0.3L49.5,12z M56.9,8.4c-1.2,0-2.8,0.1-3.6,0.2
        c-0.3,0-0.4,0.2-0.4,0.5v12.2c0,0.2,0.1,0.3,0.3,0.3h1.5c0.3,0,0.4-0.1,0.4-0.5v-3.1c0-0.3,0.1-0.3,0.3-0.3c0.5,0,1.1,0,1.7,0
        c1.7,0,2.7-0.3,3.3-0.9c0.7-0.6,1.3-1.7,1.3-4c0-2-0.5-3.2-1.1-3.7C60.1,8.6,59.1,8.4,56.9,8.4z M58.9,15.4
        c-0.3,0.3-0.8,0.5-1.9,0.5c-0.6,0-1,0-1.4-0.1c-0.3,0-0.4-0.2-0.4-0.5v-4.4c0-0.4,0.1-0.5,0.3-0.6c0.3-0.1,0.9-0.1,1.6-0.1
        c1,0,1.5,0.1,1.8,0.4c0.3,0.2,0.6,0.9,0.6,2.4C59.5,14.2,59.2,15.1,58.9,15.4z M70.5,10.2c0,0.1-0.1,0.2-0.2,0.2
        c-0.4,0-1.1-0.1-1.6-0.1c-0.5,0-1.2,0-1.7,0.1c-0.5,0.1-0.5,0.1-0.5,0.7v6.2c0,0.2-0.1,0.3-0.3,0.3h-1.7c-0.2,0-0.2-0.1-0.2-0.3V9
        c0-0.2,0.1-0.3,0.3-0.3c0.9-0.2,2.2-0.2,3.2-0.2c1.1,0,1.9,0.1,2.3,0.2C70.3,8.9,70.5,9.5,70.5,10.2z M79.2,9.2
        c-0.6-0.5-1.5-0.8-3-0.8c-1.6,0-2.7,0.3-3.3,0.9c-0.8,0.6-1.4,1.8-1.4,4c0,2,0.5,3.1,1.2,3.7c0.6,0.6,1.8,0.9,3.5,0.9
        c1.5,0,2.6-0.2,3-0.4c0.4-0.3,0.8-1,0.8-1.5c0-0.2-0.1-0.3-0.3-0.2c-0.6,0.1-1.7,0.3-2.9,0.3c-1.2,0-2-0.2-2.4-0.5
        c-0.4-0.3-0.5-0.7-0.5-1.3c0-0.2,0.1-0.3,0.6-0.3h5.5c0.3,0,0.3-0.2,0.3-0.5C80.3,10.7,79.8,9.7,79.2,9.2z M77.9,12.1
        c-0.1,0.1-0.4,0.1-0.8,0.1h-2.7c-0.4,0-0.5-0.1-0.5-0.3c0-0.3,0.1-1,0.6-1.3c0.3-0.3,0.8-0.5,1.6-0.5c0.8,0,1.2,0.1,1.5,0.3
        c0.3,0.2,0.5,0.8,0.5,1.4C78,12,77.9,12.1,77.9,12.1z M89.6,14.6c0,1.3-0.4,2.1-0.9,2.6c-0.5,0.4-1.5,0.7-3.3,0.7
        c-1.6,0-2.3-0.2-2.7-0.4c-0.3-0.3-0.7-1-0.7-1.4c0-0.2,0.1-0.3,0.3-0.3c0.8,0.1,1.8,0.2,2.8,0.2c0.9,0,1.5-0.1,1.7-0.2
        c0.2-0.2,0.3-0.4,0.3-0.7c0-0.3-0.1-0.4-0.2-0.4c-0.5-0.4-3.9-1-4.5-1.4c-0.3-0.2-0.5-0.9-0.5-1.3c0-1.5,0.4-2.3,0.9-2.8
        c0.5-0.4,1.6-0.7,3.2-0.7c1.3,0,2.2,0.1,2.5,0.3c0.4,0.3,0.6,1,0.6,1.4c0,0.2-0.2,0.3-0.3,0.3c-0.6-0.1-1.6-0.2-2.5-0.2
        c-1,0-1.6,0.1-1.9,0.2c-0.2,0.1-0.3,0.5-0.3,0.8c0,0.2,0.1,0.4,0.2,0.5c0.4,0.3,3.9,0.9,4.5,1.3C89.3,13.2,89.6,13.7,89.6,14.6z
         M98.9,14.6c0,1.3-0.4,2.1-0.9,2.6c-0.5,0.4-1.5,0.7-3.3,0.7c-1.6,0-2.3-0.2-2.7-0.4c-0.3-0.3-0.7-1-0.7-1.4c0-0.2,0.1-0.3,0.3-0.3
        c0.8,0.1,1.8,0.2,2.8,0.2c0.9,0,1.5-0.1,1.7-0.2c0.2-0.2,0.3-0.4,0.3-0.7c0-0.3-0.1-0.4-0.2-0.4c-0.5-0.4-3.9-1-4.5-1.4
        c-0.3-0.2-0.5-0.9-0.5-1.3c0-1.5,0.4-2.3,0.9-2.8c0.5-0.4,1.6-0.7,3.2-0.7c1.3,0,2.2,0.1,2.5,0.3c0.4,0.3,0.6,1,0.6,1.4
        c0,0.2-0.2,0.3-0.3,0.3c-0.6-0.1-1.6-0.2-2.5-0.2c-1,0-1.6,0.1-1.9,0.2c-0.2,0.1-0.3,0.5-0.3,0.8c0,0.2,0.1,0.4,0.2,0.5
        c0.4,0.3,3.9,0.9,4.5,1.3C98.6,13.2,98.9,13.7,98.9,14.6z"/>
</svg>
