<svg id="Layer_1" data-name="Layer 1" xmlns="http://www.w3.org/2000/svg" viewBox="0 0 2416 1080"><defs><style>.cls-1{fill:#282828;}.cls-2{fill:none;}.cls-3{fill:#fe9e14;}.cls-4{fill:#fff;}.cls-5{fill:#ffc30b;}</style></defs><title>SSA GROUP Logo</title><path class="cls-1" d="M963.6,497.57s-2.19-1.6-4.27,1.44l60,185h4.8Z"/><path class="cls-2" d="M670.82,814.78c63.83,2,126.3-25.63,174.18-72.58-53.46,59.62-127.47,97.09-206.41,97.09-96,0-176-55.43-216.45-138.6H413.5c40.77,89.09,124.56,148.86,225.42,148.86s193.91-59.71,248.41-148.86H494.63C529.67,767.91,594.47,812.38,670.82,814.78Z"/><path class="cls-2" d="M722.3,302.21c-88.15-.3-167,52.37-213.12,129H911.93C879.28,354.91,810,302.51,722.3,302.21Z"/><path class="cls-3" d="M997.31,432.8c-.17-.55-.36-1.09-.53-1.64C958.05,310.06,854,226.41,726.35,228c-60.18.77-117.59,20.46-167.24,53.83C597,261.77,639,250.24,682.62,249.8c114.2-1.14,206.52,73.83,240.53,181.36.17.55.36,1.09.53,1.64Z"/><path class="cls-3" d="M888.34,699c-.33.56-.67,1.1-1,1.65-54.5,89.15-147.56,148.86-248.41,148.86S454.27,789.78,413.5,700.69l-.75-1.65h-3l.51,1.65c37.36,118.4,137.15,202.47,262.2,204.7,128.55,2.29,246.68-82.29,304.07-204.7.25-.54.5-1.1.76-1.65Z"/><path class="cls-4" d="M638.59,839.29c78.94,0,152.95-37.47,206.41-97.09-47.88,46.95-110.35,74.59-174.18,72.58-76.35-2.4-141.15-46.87-176.19-114.09l-.84-1.65H421.36l.78,1.65C462.57,783.86,542.63,839.29,638.59,839.29Z"/><path class="cls-4" d="M508.18,432.8l1-1.64c46.09-76.58,125-129.25,213.12-129,87.66.3,157,52.7,189.63,129,.24.54.46,1.09.69,1.64h1.14c-.18-.55-.35-1.1-.53-1.64-34.06-101.62-122.79-172.08-232.2-171-107.68,1.06-204.82,71.21-253.78,171-.27.55-.55,1.09-.81,1.64Z"/><path class="cls-5" d="M537.78,599.62a1.13,1.13,0,0,0,.45.6l0-.05C538.06,600,537.92,599.81,537.78,599.62Z"/><path class="cls-1" d="M533,633.11c5.36-.89,8.42-4.23,10.18-9.06,3.23-8.93,3.35-17.72-1.34-26.26l0-.06h0l-.48-.62a33.78,33.78,0,0,0-5-4.7h0l-4-1.54c-6.75-.07-13.5-.19-20.24-.21q-28.23-.07-56.47-.1a72.17,72.17,0,0,1-12-.86,3.22,3.22,0,0,1-2.3-.35l-1.46-.38a15.88,15.88,0,0,1-6.35-1.56,37.72,37.72,0,0,1-13.24-6.23,36.65,36.65,0,0,1-11-9.3,48.47,48.47,0,0,1-10.77-15.63,9.92,9.92,0,0,1-1.2-1.85,18.52,18.52,0,0,1-1.23-3.44h0c-3.17-5.93-4.29-12.46-5.19-19a90.49,90.49,0,0,1,1.6-34c2.85-11.69,8-22.15,16.71-30.66,3.61-3.54,6.94-7.35,11.09-10.34,6.66-4.82,14.16-7.44,22.16-8.9a62.78,62.78,0,0,1,10.78-.85h-3.15a67.82,67.82,0,0,0-12.4.86c-8,1.46-15.49,4.08-22.16,8.9-4.14,3-7.48,6.8-11.08,10.34-8.68,8.51-13.87,19-16.71,30.66a90.49,90.49,0,0,0-1.61,34c.9,6.52,2,13,5.19,19h0a17.85,17.85,0,0,0,1.24,3.44,10.39,10.39,0,0,0,1.19,1.85,48.63,48.63,0,0,0,10.77,15.63,36.9,36.9,0,0,0,11,9.3,37.72,37.72,0,0,0,13.24,6.23,15.93,15.93,0,0,0,6.36,1.56l1.46.38a3.21,3.21,0,0,0,2.3.35,72.17,72.17,0,0,0,12,.86q28.23,0,56.46.1c6.75,0,13.5.14,20.24.21l4,1.54h0a33.36,33.36,0,0,1,5,4.7c.16.21.32.41.47.62h0l0,.06c.43.79.81,1.58,1.17,2.38l0,.05c3.43,7.77,3.07,15.75.14,23.83-1.75,4.83-4.82,8.17-10.18,9.06a39.87,39.87,0,0,1-6.16.57h4.37A39.11,39.11,0,0,0,533,633.11Z"/><path class="cls-1" d="M387.44,683.68c42.7.1,100.89.17,143.6.26h.58c-42.26-.08-98.09-.16-139.42-.25-.45,0-.9,0-1.35,0l17.52-50.16h-4.76l-17.52,50.17C386.54,683.66,387,683.68,387.44,683.68Z"/><path class="cls-1" d="M465.66,497.15h-.59l107.48.16h0Z"/><path class="cls-1" d="M482.14,539.34q-9.42,0-18.85,0h1Q473.23,539.36,482.14,539.34Z"/><path class="cls-1" d="M761.31,633.46c5.37-.9,8.44-4.25,10.19-9.08,3.25-9,3.36-17.76-1.33-26.31l0-.06h0l-.48-.62a32.47,32.47,0,0,0-5-4.71h0l-4-1.54c-6.76-.07-13.52-.19-20.28-.21q-28.29-.09-56.57-.1a72.34,72.34,0,0,1-12-.87,3.14,3.14,0,0,1-2.31-.35l-1.46-.38a15.81,15.81,0,0,1-6.37-1.56,37.58,37.58,0,0,1-13.26-6.24,36.8,36.8,0,0,1-11-9.32,48.65,48.65,0,0,1-10.79-15.66,9.92,9.92,0,0,1-1.2-1.85,18,18,0,0,1-1.24-3.45h0c-3.17-5.94-4.3-12.48-5.2-19a90.58,90.58,0,0,1,1.61-34.05c2.85-11.72,8-22.2,16.74-30.73,3.61-3.54,7-7.36,11.11-10.36,6.67-4.82,14.19-7.44,22.2-8.9a62,62,0,0,1,10.8-.86h-3.15a67.22,67.22,0,0,0-12.43.87c-8,1.46-15.52,4.08-22.2,8.9-4.15,3-7.49,6.82-11.1,10.36-8.7,8.53-13.89,19-16.75,30.73a90.58,90.58,0,0,0-1.6,34.05c.9,6.53,2,13.07,5.2,19h0a18,18,0,0,0,1.24,3.45,9.86,9.86,0,0,0,1.19,1.85,48.68,48.68,0,0,0,10.8,15.66,36.76,36.76,0,0,0,11,9.32,37.71,37.71,0,0,0,13.27,6.24,15.76,15.76,0,0,0,6.36,1.56l1.47.38a3.11,3.11,0,0,0,2.3.35,72.46,72.46,0,0,0,12,.87q28.28,0,56.56.1c6.76,0,13.52.14,20.28.21l4,1.54h0a32.93,32.93,0,0,1,5,4.71l.48.62h0l0,.06c4.7,8.55,4.58,17.36,1.34,26.31-1.75,4.83-4.83,8.18-10.2,9.08a40.09,40.09,0,0,1-6.17.56h4.37A39.33,39.33,0,0,0,761.31,633.46Z"/><path class="cls-1" d="M710.39,539.51q-9.43,0-18.89,0h1Z"/><path class="cls-1" d="M618.94,684.07l17.55-50.24-4.77,0-17.56,50.26c.45,0,.91,0,1.36,0,42.78.1,101.08.17,143.86.26H760c-42.34-.08-98.27-.16-139.68-.25C619.84,684.12,619.39,684.1,618.94,684.07Z"/><path class="cls-1" d="M693.29,497.25c32,.05,76.89.11,107.68.17h0c-32-.06-76.5-.11-107.1-.16Z"/><polygon class="cls-1" points="847.18 683.8 927.32 447.97 922.59 447.97 843.15 684.11 972.34 683.8 847.18 683.8"/><polygon class="cls-1" points="990.54 632.58 990.55 632.55 915.59 632.77 915.59 632.79 990.54 632.58"/><path class="cls-3" d="M390.85,683.64c.45,0,.9,0,1.35,0,41.33.09,97.16.17,139.42.25h4.18a68.42,68.42,0,0,0,8.93-.57,46.79,46.79,0,0,0,18.13-5,1.27,1.27,0,0,0,.5-.26h0l.87-.32a.63.63,0,0,0,.7-.45,2.41,2.41,0,0,0,.48-.08,3.13,3.13,0,0,0,1.17-.78.83.83,0,0,0,.91-.58c9.21-5,16-12.51,21.06-21.58A35.35,35.35,0,0,0,594,643.24h0a55,55,0,0,0,4.72-19.46h0c1.3-4.67.79-9.45.84-14.19A69.39,69.39,0,0,0,597,589.38h0A61.74,61.74,0,0,0,586.78,566,49.37,49.37,0,0,0,573,551.12a12.06,12.06,0,0,0-3.36-2.58c-10-6.57-21.17-9-32.9-9q-27.3-.18-54.61-.16-8.91,0-17.81.06h-1c-5.92-.15-10.9-1.92-14.89-6.49a1,1,0,0,0-.65-.91h0c-1.62-3.31-3.3-6.61-3.34-10.42,0-2.41,0-4.83,0-7.24.35-1.25.61-2.52,1.06-3.73,2.25-6.09,5.86-10.9,12.4-12.88a1.59,1.59,0,0,0,1.57-.46c1.88,0,3.76-.09,5.64-.1h.59l106.89.17h4.77L600,447.45c-43.27-.08-101.91-.15-145.17-.22H453.2a62.78,62.78,0,0,0-10.78.85c-8,1.46-15.5,4.08-22.16,8.9-4.15,3-7.48,6.8-11.09,10.34-8.68,8.51-13.86,19-16.71,30.66a90.49,90.49,0,0,0-1.6,34c.9,6.52,2,13,5.19,19h0a18.52,18.52,0,0,0,1.23,3.44,9.92,9.92,0,0,0,1.2,1.85,48.47,48.47,0,0,0,10.77,15.63,36.65,36.65,0,0,0,11,9.3,37.72,37.72,0,0,0,13.24,6.23,15.88,15.88,0,0,0,6.35,1.56l1.46.38a3.22,3.22,0,0,0,2.3.35,72.17,72.17,0,0,0,12,.86q28.25,0,56.47.1c6.74,0,13.49.14,20.24.21l4,1.54h0a33.78,33.78,0,0,1,5,4.7l.48.62h0l0,.06c4.69,8.54,4.57,17.33,1.34,26.26-1.76,4.83-4.82,8.17-10.18,9.06a39.11,39.11,0,0,1-6.56.58H522c-33.94-.07-80.9-.12-113.66-.21h0Z"/><path class="cls-3" d="M673.64,510.72c2.26-6.11,5.88-10.93,12.43-12.9a1.61,1.61,0,0,0,1.57-.47c1.89,0,3.77-.09,5.65-.1h.59c30.6.05,75.15.1,107.1.16h4.77l22.71-50c-43.34-.08-102.09-.15-145.44-.22H681.4a62,62,0,0,0-10.8.86c-8,1.46-15.53,4.08-22.2,8.9-4.15,3-7.5,6.82-11.11,10.36-8.7,8.53-13.89,19-16.74,30.73a90.58,90.58,0,0,0-1.61,34.05c.9,6.53,2,13.07,5.2,19h0a18,18,0,0,0,1.24,3.45,9.92,9.92,0,0,0,1.2,1.85,48.65,48.65,0,0,0,10.79,15.66,36.8,36.8,0,0,0,11,9.32,37.58,37.58,0,0,0,13.26,6.24,15.81,15.81,0,0,0,6.37,1.56l1.46.38a3.14,3.14,0,0,0,2.31.35,72.34,72.34,0,0,0,12,.87q28.29,0,56.57.1c6.76,0,13.52.14,20.28.21l4,1.54h0a32.47,32.47,0,0,1,5,4.71l.48.62h0l0,.06c4.69,8.55,4.58,17.36,1.33,26.31-1.75,4.83-4.82,8.18-10.19,9.08a39.33,39.33,0,0,1-6.58.57h-4.37c-34-.06-81.05-.11-113.87-.21v0l-17.55,50.24c.45,0,.9,0,1.35,0,41.41.09,97.34.17,139.68.25h4.18a68.62,68.62,0,0,0,9-.57,46.81,46.81,0,0,0,18.17-5,1.42,1.42,0,0,0,.5-.26h0l.88-.32a.64.64,0,0,0,.7-.45,1.86,1.86,0,0,0,.48-.09,3.1,3.1,0,0,0,1.17-.77.85.85,0,0,0,.92-.58c9.22-5.07,16-12.53,21.09-21.63a35.37,35.37,0,0,0,5.4-11.11h0a55,55,0,0,0,4.73-19.49h0c1.31-4.68.79-9.47.84-14.22a69,69,0,0,0-2.57-20.25h0a61.62,61.62,0,0,0-10.18-23.4,49.45,49.45,0,0,0-13.8-14.93,12.06,12.06,0,0,0-3.36-2.58c-10-6.58-21.21-9-33-9.06q-27.35-.18-54.71-.16l-17.84.06h-1c-5.93-.15-10.91-1.93-14.91-6.5a1,1,0,0,0-.65-.91h0c-1.62-3.32-3.3-6.62-3.34-10.45,0-2.41,0-4.83,0-7.25C672.93,513.21,673.19,511.93,673.64,510.72Z"/><path class="cls-3" d="M957.72,502.59a13.25,13.25,0,0,1,1.61-3.58c2.08-3,4.27-1.44,4.27-1.44L1024.14,684h0l53.76,0-83-236H927.32L847.18,683.8H982.65l18.5-51.25-10.61,0-74.95.21v0C915.79,632.17,955.39,510.18,957.72,502.59Z"/><path class="cls-4" d="M1950.75,439.15v-3h16.89v3h-6.88V467h-3.14V439.15Z"/><path class="cls-4" d="M1969.82,467l4.41-30.83h.5l12.54,25.3,12.41-25.3h.49l4.44,30.83h-3l-3-22-10.9,22h-.79l-11-22.21-3,22.21Z"/><path class="cls-4" d="M1586.54,538.14c-17.36-19.11-39.53-28.8-65.88-28.8s-48.69,9.74-66,29c-15.72,17.36-23.69,38.15-23.69,61.78,0,23.86,8.41,45,25,62.79,16.73,18,38.51,27.08,64.74,27.08s47.85-9.11,64.59-27.08c16.58-17.81,25-38.94,25-62.79S1602.27,555.52,1586.54,538.14ZM1567,628.45a51.17,51.17,0,0,1-19.37,19.78,55.66,55.66,0,0,1-54,0,51.08,51.08,0,0,1-19.37-19.77,56.42,56.42,0,0,1-7.26-27.94c0-15.43,5.35-28.75,15.9-39.6s23.18-16.26,37.72-16.26,27.12,5.47,37.66,16.27,16,24.17,16,39.59A56.44,56.44,0,0,1,1567,628.45Z"/><path class="cls-4" d="M1883.92,503.83a88.62,88.62,0,0,0-88.51,88.51c0,2.93.14,5.89.43,8.8v136.8h36.44V664.22a88.51,88.51,0,1,0,51.64-160.39Zm.22,143.76A53.59,53.59,0,1,1,1937.73,594,53.65,53.65,0,0,1,1884.14,647.59Z"/><path class="cls-4" d="M1743.7,594.7c0,23.27-1.43,32.45-2.63,36a34.24,34.24,0,0,1-13.31,17.52c-6.5,4.49-14.66,6.77-24.27,6.77s-17.94-2.36-24.72-7a33.68,33.68,0,0,1-13.47-18.53c-1.18-4.12-2.59-13.51-2.59-34.79V513.62l-35.74,0V597c0,23.32,2.78,41.28,8.27,53.35a65.31,65.31,0,0,0,26,29.41c11.43,6.92,25.67,10.43,42.34,10.43s30.88-3.52,42.22-10.45a65.78,65.78,0,0,0,25.8-29.14c5.5-11.94,8.29-29.49,8.29-52.16V513.62l-36.18.43Z"/><path class="cls-4" d="M1449.18,526.35s-11-7.61-18.27-10.23c-23.89-8.45-47.49,2.62-47.49,2.62-38.46,18.36-39.68,69.58-39.68,69.58v97.34H1381s-.15-66.11.14-100.2c5.82-49.24,42.82-23.31,42.82-23.31A77.88,77.88,0,0,1,1449.18,526.35Z"/><path class="cls-4" d="M1296.55,524.18h-57.4v35.06h53.54c.08,1.51.12,3,.12,4.55a89.62,89.62,0,1,1-28.55-65.58h43.9a122.38,122.38,0,1,0,11.87,26Z"/></svg>